<svg width="86" height="98" viewBox="0 0 86 98" fill="none" xmlns="http://www.w3.org/2000/svg">
<rect x="36.4819" y="59.8408" width="9" height="30" transform="rotate(12.5802 36.4819 59.8408)" fill="#150D0D"/>
<rect x="18.9074" y="3.15207" width="67" height="52" rx="9.5" transform="rotate(12.5802 18.9074 3.15207)" fill="##DD960A" stroke="#150D0D"/>
<path d="M15.5957 44.9336L16.8555 39.2885L23.6484 40.8044L28.1857 20.4725L21.0916 21.0779L22.5291 14.6364L30.7375 13.8862L37.4367 15.3812L31.3783 42.5294L38.1477 44.0401L36.8879 49.6853L15.5957 44.9336ZM44.4487 51.3725L45.6771 45.8679C46.2223 45.6289 46.9515 45.2999 47.8647 44.8807C48.7779 44.4615 49.8057 43.9696 50.9482 43.4049C52.0941 42.8245 53.2756 42.1947 54.4928 41.5155C55.7255 40.8398 56.928 40.1164 58.1001 39.3451C59.2913 38.5618 60.3775 37.7714 61.3588 36.974C62.3435 36.1609 63.1668 35.3365 63.8288 34.5006C64.4908 33.6647 64.9123 32.8407 65.0935 32.0287C65.2678 31.2479 65.3239 30.5555 65.262 29.9515C65.2001 29.3475 65.0279 28.8337 64.7454 28.41C64.482 27.9741 64.1274 27.6163 63.6816 27.3365C63.2515 27.0602 62.7397 26.8558 62.1463 26.7234C61.2094 26.5143 60.319 26.6107 59.4752 27.0126C58.647 27.4179 57.9064 27.9821 57.2532 28.7052C56.6191 29.4162 56.1195 30.149 55.7544 30.9036L49.7398 26.5613C50.5447 24.9376 51.6644 23.6301 53.0988 22.6387C54.5331 21.6473 56.1433 21.0067 57.9294 20.7167C59.7345 20.4146 61.5818 20.4744 63.4713 20.8961C65.1579 21.2725 66.6794 21.8005 68.0359 22.4803C69.3959 23.1445 70.5179 23.9932 71.4021 25.0266C72.3053 26.0479 72.909 27.2728 73.2132 28.7013C73.533 30.1333 73.4785 31.8097 73.0499 33.7305C72.7851 34.9173 72.2304 36.0804 71.386 37.2198C70.545 38.3437 69.5262 39.4196 68.3295 40.4476C67.152 41.4635 65.9086 42.4074 64.5993 43.2791C63.3091 44.1388 62.0554 44.9082 60.8382 45.5874C59.6246 46.251 58.5611 46.7923 57.6479 47.2115C56.7538 47.6185 56.1279 47.8887 55.7703 48.022L68.7939 50.9284L67.5446 56.5267L44.4487 51.3725Z" fill="#150D0D"/>
</svg>
